<svg xmlns="http://www.w3.org/2000/svg" viewBox="0 0 16 16">
<!-- <path fill="#000" d="M3,3 L4,3 L4,4 L3,4 ZM3,12 L4,12 L4,13 L3,13 ZM4,4 L5,4 L5,5 L4,5 ZM4,11 L5,11 L5,12 L4,12 ZM5,5 L6,5 L6,6 L5,6 ZM5,10 L6,10 L6,11 L5,11 ZM6,6 L7,6 L7,7 L6,7 ZM6,9 L7,9 L7,10 L6,10 ZM7,7 L8,7 L8,8 L7,8 ZM7,8 L8,8 L8,9 L7,9 ZM8,7 L9,7 L9,8 L8,8 ZM8,8 L9,8 L9,9 L8,9 ZM9,6 L10,6 L10,7 L9,7 ZM9,9 L10,9 L10,10 L9,10 ZM10,5 L11,5 L11,6 L10,6 ZM10,10 L11,10 L11,11 L10,11 ZM11,4 L12,4 L12,5 L11,5 ZM11,11 L12,11 L12,12 L11,12 ZM12,3 L13,3 L13,4 L12,4 ZM12,12 L13,12 L13,13 L12,13 Z" /> -->
<path d="M3.75,3.75 L12.75,12.75 Z M12.75,3.75 L3.75,12.75 Z" stroke="#000" stroke-width=".5px" />
</svg>