<svg xmlns="http://www.w3.org/2000/svg" viewBox="0 0 16 16"><path fill="#fff" d="M0,0 L1,0 L1,1 L0,1 ZM0,1 L1,1 L1,2 L0,2 ZM0,2 L1,2 L1,3 L0,3 ZM0,3 L1,3 L1,4 L0,4 ZM0,4 L1,4 L1,5 L0,5 ZM0,5 L1,5 L1,6 L0,6 ZM0,6 L1,6 L1,7 L0,7 ZM0,8 L1,8 L1,9 L0,9 ZM0,9 L1,9 L1,10 L0,10 ZM0,10 L1,10 L1,11 L0,11 ZM0,11 L1,11 L1,12 L0,12 ZM0,12 L1,12 L1,13 L0,13 ZM0,13 L1,13 L1,14 L0,14 ZM0,14 L1,14 L1,15 L0,15 ZM1,0 L2,0 L2,1 L1,1 ZM1,6 L2,6 L2,7 L1,7 ZM1,8 L2,8 L2,9 L1,9 ZM1,14 L2,14 L2,15 L1,15 ZM2,0 L3,0 L3,1 L2,1 ZM2,6 L3,6 L3,7 L2,7 ZM2,8 L3,8 L3,9 L2,9 ZM2,14 L3,14 L3,15 L2,15 ZM3,0 L4,0 L4,1 L3,1 ZM3,6 L4,6 L4,7 L3,7 ZM3,8 L4,8 L4,9 L3,9 ZM3,14 L4,14 L4,15 L3,15 ZM4,0 L5,0 L5,1 L4,1 ZM4,6 L5,6 L5,7 L4,7 ZM4,8 L5,8 L5,9 L4,9 ZM4,14 L5,14 L5,15 L4,15 ZM5,0 L6,0 L6,1 L5,1 ZM5,6 L6,6 L6,7 L5,7 ZM5,8 L6,8 L6,9 L5,9 ZM5,14 L6,14 L6,15 L5,15 ZM6,0 L7,0 L7,1 L6,1 ZM6,6 L7,6 L7,7 L6,7 ZM6,8 L7,8 L7,9 L6,9 ZM6,14 L7,14 L7,15 L6,15 ZM7,0 L8,0 L8,1 L7,1 ZM7,6 L8,6 L8,7 L7,7 ZM7,8 L8,8 L8,9 L7,9 ZM7,14 L8,14 L8,15 L7,15 ZM8,0 L9,0 L9,1 L8,1 ZM8,6 L9,6 L9,7 L8,7 ZM8,8 L9,8 L9,9 L8,9 ZM8,14 L9,14 L9,15 L8,15 ZM9,0 L10,0 L10,1 L9,1 ZM9,6 L10,6 L10,7 L9,7 ZM9,8 L10,8 L10,9 L9,9 ZM9,14 L10,14 L10,15 L9,15 ZM10,0 L11,0 L11,1 L10,1 ZM10,1 L11,1 L11,2 L10,2 ZM10,2 L11,2 L11,3 L10,3 ZM10,3 L11,3 L11,4 L10,4 ZM10,4 L11,4 L11,5 L10,5 ZM10,5 L11,5 L11,6 L10,6 ZM10,6 L11,6 L11,7 L10,7 ZM10,8 L11,8 L11,9 L10,9 ZM10,9 L11,9 L11,10 L10,10 ZM10,10 L11,10 L11,11 L10,11 ZM10,11 L11,11 L11,12 L10,12 ZM10,12 L11,12 L11,13 L10,13 ZM10,13 L11,13 L11,14 L10,14 ZM10,14 L11,14 L11,15 L10,15 ZM13,8 L14,8 L14,9 L13,9 ZM13,9 L14,9 L14,10 L13,10 ZM13,10 L14,10 L14,11 L13,11 ZM14,0 L15,0 L15,1 L14,1 ZM14,1 L15,1 L15,2 L14,2 ZM14,2 L15,2 L15,3 L14,3 ZM14,3 L15,3 L15,4 L14,4 ZM14,4 L15,4 L15,5 L14,5 ZM14,5 L15,5 L15,6 L14,6 ZM14,6 L15,6 L15,7 L14,7 ZM14,8 L15,8 L15,9 L14,9 ZM14,9 L15,9 L15,10 L14,10 ZM14,10 L15,10 L15,11 L14,11 ZM14,12 L15,12 L15,13 L14,13 ZM14,13 L15,13 L15,14 L14,14 ZM14,14 L15,14 L15,15 L14,15 ZM15,8 L16,8 L16,9 L15,9 ZM15,9 L16,9 L16,10 L15,10 ZM15,10 L16,10 L16,11 L15,11 Z" /></svg>