<svg xmlns="http://www.w3.org/2000/svg" viewBox="0 0 16 16"><path fill="#fff" d="M0,0 L1,0 L1,1 L0,1 ZM0,1 L1,1 L1,2 L0,2 ZM0,2 L1,2 L1,3 L0,3 ZM0,4 L1,4 L1,5 L0,5 ZM0,5 L1,5 L1,6 L0,6 ZM0,6 L1,6 L1,7 L0,7 ZM0,7 L1,7 L1,8 L0,8 ZM0,8 L1,8 L1,9 L0,9 ZM0,9 L1,9 L1,10 L0,10 ZM0,10 L1,10 L1,11 L0,11 ZM0,12 L1,12 L1,13 L0,13 ZM0,13 L1,13 L1,14 L0,14 ZM0,14 L1,14 L1,15 L0,15 ZM1,2 L2,2 L2,3 L1,3 ZM1,4 L2,4 L2,5 L1,5 ZM1,10 L2,10 L2,11 L1,11 ZM1,12 L2,12 L2,13 L1,13 ZM2,2 L3,2 L3,3 L2,3 ZM2,4 L3,4 L3,5 L2,5 ZM2,10 L3,10 L3,11 L2,11 ZM2,12 L3,12 L3,13 L2,13 ZM3,2 L4,2 L4,3 L3,3 ZM3,4 L4,4 L4,5 L3,5 ZM3,10 L4,10 L4,11 L3,11 ZM3,12 L4,12 L4,13 L3,13 ZM4,2 L5,2 L5,3 L4,3 ZM4,4 L5,4 L5,5 L4,5 ZM4,10 L5,10 L5,11 L4,11 ZM4,12 L5,12 L5,13 L4,13 ZM5,2 L6,2 L6,3 L5,3 ZM5,4 L6,4 L6,5 L5,5 ZM5,10 L6,10 L6,11 L5,11 ZM5,12 L6,12 L6,13 L5,13 ZM6,2 L7,2 L7,3 L6,3 ZM6,4 L7,4 L7,5 L6,5 ZM6,10 L7,10 L7,11 L6,11 ZM6,12 L7,12 L7,13 L6,13 ZM7,2 L8,2 L8,3 L7,3 ZM7,4 L8,4 L8,5 L7,5 ZM7,10 L8,10 L8,11 L7,11 ZM7,12 L8,12 L8,13 L7,13 ZM8,2 L9,2 L9,3 L8,3 ZM8,4 L9,4 L9,5 L8,5 ZM8,10 L9,10 L9,11 L8,11 ZM8,12 L9,12 L9,13 L8,13 ZM9,2 L10,2 L10,3 L9,3 ZM9,4 L10,4 L10,5 L9,5 ZM9,10 L10,10 L10,11 L9,11 ZM9,12 L10,12 L10,13 L9,13 ZM10,0 L11,0 L11,1 L10,1 ZM10,1 L11,1 L11,2 L10,2 ZM10,2 L11,2 L11,3 L10,3 ZM10,4 L11,4 L11,5 L10,5 ZM10,5 L11,5 L11,6 L10,6 ZM10,6 L11,6 L11,7 L10,7 ZM10,7 L11,7 L11,8 L10,8 ZM10,8 L11,8 L11,9 L10,9 ZM10,9 L11,9 L11,10 L10,10 ZM10,10 L11,10 L11,11 L10,11 ZM10,12 L11,12 L11,13 L10,13 ZM10,13 L11,13 L11,14 L10,14 ZM10,14 L11,14 L11,15 L10,15 ZM13,4 L14,4 L14,5 L13,5 ZM13,5 L14,5 L14,6 L13,6 ZM13,6 L14,6 L14,7 L13,7 ZM14,0 L15,0 L15,1 L14,1 ZM14,1 L15,1 L15,2 L14,2 ZM14,2 L15,2 L15,3 L14,3 ZM14,4 L15,4 L15,5 L14,5 ZM14,5 L15,5 L15,6 L14,6 ZM14,6 L15,6 L15,7 L14,7 ZM14,8 L15,8 L15,9 L14,9 ZM14,9 L15,9 L15,10 L14,10 ZM14,10 L15,10 L15,11 L14,11 ZM14,11 L15,11 L15,12 L14,12 ZM14,12 L15,12 L15,13 L14,13 ZM14,13 L15,13 L15,14 L14,14 ZM14,14 L15,14 L15,15 L14,15 ZM15,4 L16,4 L16,5 L15,5 ZM15,5 L16,5 L16,6 L15,6 ZM15,6 L16,6 L16,7 L15,7 Z" /></svg>