<svg xmlns="http://www.w3.org/2000/svg" viewBox="0 0 16 16"><path fill="#fff" d="M2,0L14,0L14,2L2,2ZM2,2L4,2L4,4L2,4ZM12,2L14,2L14,4L12,4ZM2,4L14,4L14,6L2,6 M2,6L4,6L4,8L2,8ZM6,6L7,6L7,8L6,8ZM9,6L10,6L10,8L9,8ZM12,6L14,6L14,8L12,8ZM2,8L14,8L14,9L2,9ZM2,9L4,9L4,11L2,11ZM6,9L7,9L7,11L6,11ZM9,9L10,9L10,11L9,11ZM12,9L14,9L14,11L12,11ZM2,11L14,11L14,12L2,12ZM2,12L4,12L4,14L2,14ZM6,12L7,12L7,14L6,14ZM9,12L10,12L10,14L9,14ZM12,12L14,12L14,14L12,14ZM2,14L14,14L14,16L2,16ZM6,6L6,8L4,8ZM9,6L9,8L7,8ZM12,6L12,8L10,8ZM6,9L6,11L4,11ZM9,9L9,11L7,11ZM12,9L12,11L10,11ZM6,12L6,14L4,14ZM9,12L9,14L7,14ZM12,12L12,14L10,14Z" /></svg>